<svg id="组_15" data-name="组 15" xmlns="http://www.w3.org/2000/svg" width="31.125" height="30" viewBox="0 0 31.125 30">
  <defs>
    <style>
      .cls-1, .cls-2 {
        fill: #fff;
        fill-rule: evenodd;
      }

      .cls-2 {
        opacity: 0.5;
      }
    </style>
  </defs>
  <path id="形状_7" data-name="形状 7" class="cls-1" d="M42,1052.61c0.056-.84.11-1.65,0.167-2.47,0.1-1.38.2-2.75,0.3-4.12q0.181-2.505.362-5.01c0.023-.31.033-0.62,0.08-0.93a0.611,0.611,0,0,1,.64-0.55c1.022,0,2.044,0,3.066.01a0.618,0.618,0,0,1,.637.59c0.092,1.16.174,2.32,0.258,3.48q0.181,2.49.359,4.98c0.033,0.47.07,0.94,0.083,1.4a0.329,0.329,0,0,1-.157.26c-1.889.79-3.783,1.57-5.676,2.36H42Zm18.61-14.01a3.457,3.457,0,0,1-1.4,1.95,5.209,5.209,0,0,1-4.65.73,8.462,8.462,0,0,1-2.812-1.39,9.522,9.522,0,0,0-2.413-1.42,4.425,4.425,0,0,0-3.3.03l-0.179.06a0.588,0.588,0,0,0-.086-0.02,5.657,5.657,0,0,1,.2-0.56,3.886,3.886,0,0,1,3.141-2.17,6.54,6.54,0,0,1,5.062,1.57,7.262,7.262,0,0,0,3.083,1.46,6.461,6.461,0,0,0,3.058-.16C60.386,1038.66,60.467,1038.64,60.609,1038.6Z" transform="translate(-39.938 -1035.75)"/>
  <path id="形状_7_拷贝" data-name="形状 7 拷贝" class="cls-2" d="M51.1,1054.45c0.768-.32,1.473-0.61,2.177-0.91q3.369-1.395,6.738-2.81c0.674-.28,1.047-0.03,1.047.71,0,0.98,0,1.96,0,2.99,0.137-.05.244-0.08,0.348-0.13l8.564-3.57a0.685,0.685,0,0,1,1.074.7q0,6.75,0,13.5a0.69,0.69,0,0,1-.835.82H40.775a0.684,0.684,0,0,1-.821-0.8q0-4.74,0-9.46a0.76,0.76,0,0,1,.53-0.78q4.788-1.98,9.568-3.98c0.678-.28,1.048-0.03,1.05.71C51.1,1052.42,51.1,1053.4,51.1,1054.45Zm4.393,8.7c0.468,0,.938-0.02,1.4,0a1.256,1.256,0,0,0,1.348-1.3q0.027-1.425,0-2.85a1.273,1.273,0,0,0-1.364-1.33H54.1a1.266,1.266,0,0,0-1.347,1.31q-0.029,1.44,0,2.88a1.258,1.258,0,0,0,1.33,1.29C54.553,1063.13,55.022,1063.15,55.491,1063.15Zm9.725,0c0.468,0,.938-0.02,1.4,0a1.261,1.261,0,0,0,1.339-1.31c0.018-.95.021-1.9,0-2.85a1.271,1.271,0,0,0-1.372-1.32H63.809a1.263,1.263,0,0,0-1.336,1.29q-0.032,1.455,0,2.91a1.25,1.25,0,0,0,1.306,1.28h1.437Zm-19.464,0h1.47a1.158,1.158,0,0,0,1.246-1.11c0.059-1.06.082-2.12,0.045-3.17a1.222,1.222,0,0,0-1.347-1.2H44.417a1.259,1.259,0,0,0-1.374,1.28c-0.028.97-.024,1.95,0,2.92a1.25,1.25,0,0,0,1.335,1.28C44.834,1063.13,45.293,1063.15,45.751,1063.15Z" transform="translate(-39.938 -1035.75)"/>
</svg>
