<svg xmlns="http://www.w3.org/2000/svg" width="23.437" height="25.96" viewBox="0 0 23.437 25.96">
  <defs>
    <style>
      .cls-1 {
        fill: #e27c11;
        fill-rule: evenodd;
      }
    </style>
  </defs>
  <path id="形状_681" data-name="形状 681" class="cls-1" d="M953.227,2768.63h-0.56a1.469,1.469,0,0,1-1.055-1.61q0.017-11.415.009-22.82a2.408,2.408,0,0,1,.061-0.63,1.324,1.324,0,0,1,1.989-.73q8.518,4.8,17.049,9.58,1.813,1.02,3.626,2.04a1.284,1.284,0,0,1,.7,1.44,1.479,1.479,0,0,1-.839.99l-14.534,8.16Q956.453,2766.85,953.227,2768.63Z" transform="translate(-951.625 -2742.66)"/>
</svg>
