<svg xmlns="http://www.w3.org/2000/svg" width="23.562" height="40" viewBox="0 0 23.562 40">
  <defs>
    <style>
      .cls-1 {
        fill: #fff;
        fill-rule: evenodd;
      }
    </style>
  </defs>
  <path id="形状_685" data-name="形状 685" class="cls-1" d="M590.947,2634.99c-0.753-.18-1.525-0.3-2.258-0.54a9.435,9.435,0,0,1-2.925-16.15,0.679,0.679,0,0,0,.23-0.61q0-8.34,0-16.66a5.782,5.782,0,0,1,2.762-5.15,5.29,5.29,0,0,1,2.136-.8,1.657,1.657,0,0,0,.213-0.07h1.326c0.29,0.06.583,0.12,0.869,0.2a5.778,5.778,0,0,1,4.3,5.68c0.014,2.63,0,5.26,0,7.89,0,2.97,0,5.95-.006,8.93a0.748,0.748,0,0,0,.289.63,9.47,9.47,0,0,1-4.732,16.56l-0.489.09h-1.716Zm4.314-25.42H595.25c0-2.98.046-5.96-.014-8.94a3.417,3.417,0,0,0-4.911-2.94,3.456,3.456,0,0,0-2,3.39c0.007,5.76,0,11.53.01,17.3a1.623,1.623,0,0,1-.721,1.45,7.084,7.084,0,0,0,5.351,12.71,6.857,6.857,0,0,0,5.724-5.38,6.994,6.994,0,0,0-2.724-7.35,1.579,1.579,0,0,1-.716-1.41C595.269,2615.46,595.261,2612.52,595.261,2609.57Zm7.64-7.58c-0.559,0-1.118.01-1.676,0a1.176,1.176,0,1,1,.019-2.34q1.7-.015,3.391,0a1.174,1.174,0,1,1,.02,2.34C604.07,2602,603.486,2601.99,602.9,2601.99Zm0,4.69c-0.572,0-1.144.01-1.715-.01a1.167,1.167,0,1,1-.016-2.33c1.169-.02,2.339-0.01,3.508,0a1.168,1.168,0,1,1-.023,2.33C604.069,2606.68,603.484,2606.68,602.9,2606.68Zm0,4.68c-0.571,0-1.143.01-1.715,0a1.167,1.167,0,1,1-.019-2.33q1.773-.03,3.547,0a1.166,1.166,0,0,1,1.2,1.17,1.182,1.182,0,0,1-1.221,1.16C604.1,2611.37,603.5,2611.36,602.9,2611.36Zm0.019,4.69c-0.572,0-1.143.01-1.715,0a1.173,1.173,0,1,1-.018-2.34q1.734-.015,3.47,0a1.174,1.174,0,1,1-.022,2.34h-1.715Zm-12.287,4.87v-0.48q0-7.35,0-14.68a2.424,2.424,0,0,1,.036-0.55,1.173,1.173,0,0,1,1.211-.89,1.2,1.2,0,0,1,1.086,1.09c0.012,0.14,0,.29,0,0.43v15.06a4.846,4.846,0,0,1,3.49,5.59,4.75,4.75,0,0,1-9.3.1,4.608,4.608,0,0,1,.589-3.53A4.825,4.825,0,0,1,590.632,2620.92Zm1.18,7.04a2.415,2.415,0,1,0-2.424-2.39A2.428,2.428,0,0,0,591.812,2627.96Z" transform="translate(-582.344 -2595)"/>
</svg>
