<svg xmlns="http://www.w3.org/2000/svg" xmlns:xlink="http://www.w3.org/1999/xlink" width="40" height="40" viewBox="0 0 40 40">
  <defs>
    <style>
      .cls-1 {
        fill: #154a93;
        fill-rule: evenodd;
        filter: url(#filter);
      }
    </style>
    <filter id="filter" x="600" y="2641" width="40" height="40" filterUnits="userSpaceOnUse">
      <feFlood result="flood" flood-color="#fff"/>
      <feComposite result="composite" operator="in" in2="SourceGraphic"/>
      <feBlend result="blend" in2="SourceGraphic"/>
    </filter>
  </defs>
  <path id="形状_11" data-name="形状 11" class="cls-1" d="M607.192,2641.01c0.333,0.42.685,0.84,0.994,1.28a6.212,6.212,0,0,1,1.264,3.38,5.22,5.22,0,0,1-1.043,3.21,21.258,21.258,0,0,0-2.7,5.49c-0.208.6-.367,1.22-0.532,1.83a1.2,1.2,0,0,0-.011.47,7.05,7.05,0,0,1-.328,3.3,4.651,4.651,0,0,0-.122,1.85,14.825,14.825,0,0,0,5.665,10.5,48.821,48.821,0,0,0,7.26,4.68c0.7,0.4,1.407.79,2.121,1.16a0.518,0.518,0,0,0,.421.02,62,62,0,0,0,8.884-5.46,16.047,16.047,0,0,0,5.416-7.15,13.318,13.318,0,0,0,.825-4.88,7.62,7.62,0,0,0-.326-1.4,6.78,6.78,0,0,1-.154-2.51,2.026,2.026,0,0,0-.049-0.73,23.578,23.578,0,0,0-2.528-6.21c-0.35-.62-0.814-1.18-1.141-1.81a4.9,4.9,0,0,1,.253-5.01,24.056,24.056,0,0,1,1.451-2.01h0.156c0.341,0.43.7,0.86,1.019,1.31,1.355,1.95,1.728,3.98.451,6.12a0.506,0.506,0,0,0,.03.54c0.658,1.43,1.308,2.88,1.959,4.32,0.042,0.09.082,0.18,0.135,0.3a9.466,9.466,0,0,1,2.841-1.54c0.075,0.22.155,0.41,0.2,0.61,0.137,0.56.261,1.13,0.391,1.69v1.41a0.7,0.7,0,0,0-.063.18,4.594,4.594,0,0,1-1.991,3.2,0.626,0.626,0,0,0-.276.62,16.3,16.3,0,0,1-.425,4.71c-0.151.66-.362,1.31-0.556,1.99,0.142-.02.243-0.03,0.342-0.04a7.425,7.425,0,0,1,2.969.11v0.08a1.717,1.717,0,0,0-.079.26,5.765,5.765,0,0,1-6.363,5.19,0.836,0.836,0,0,0-.563.22,27.777,27.777,0,0,1-4.49,3.79,1.844,1.844,0,0,0-.238.21,7.1,7.1,0,0,1,4.638,2.42c-0.517.41-1.022,0.83-1.556,1.21a7.212,7.212,0,0,1-2.517,1.07h-1.25c-0.333-.1-0.671-0.18-1-0.29a7.577,7.577,0,0,1-2.547-1.55,0.5,0.5,0,0,0-.385-0.14c-1.2.65-2.38,1.32-3.566,1.98h-0.156c-1.188-.66-2.375-1.32-3.57-1.97a0.381,0.381,0,0,0-.328.08c-0.241.17-.458,0.38-0.694,0.56a7.628,7.628,0,0,1-2.905,1.33h-1.25a7.6,7.6,0,0,1-2.553-1.08c-0.527-.39-1.03-0.81-1.564-1.23a7.541,7.541,0,0,1,4.632-2.4c-0.075-.07-0.1-0.09-0.133-0.12a27.438,27.438,0,0,1-4.669-3.93,0.711,0.711,0,0,0-.478-0.16,7.355,7.355,0,0,1-3.008-.51,5.59,5.59,0,0,1-2.909-3.39c-0.2-.5-0.326-1.03-0.486-1.55v-0.08a8.087,8.087,0,0,1,3.288-.07,0.966,0.966,0,0,0-.021-0.19,17.425,17.425,0,0,1-.952-6.67,0.671,0.671,0,0,0-.216-0.4,13.9,13.9,0,0,1-1.432-1.57,8.414,8.414,0,0,1-.667-1.72v-1.56c0.174-.76.348-1.52,0.555-2.43,1.046,0.57,1.97,1.08,2.908,1.59a0.1,0.1,0,0,0,.033-0.05,30.246,30.246,0,0,1,2.046-4.57,0.592,0.592,0,0,0-.025-0.49,5.069,5.069,0,0,1,.158-5.56c0.4-.65.9-1.23,1.354-1.84h0.156Zm23.35,12.96c0,1.79-.007,3.52,0,5.25a18.754,18.754,0,0,1-.346,4.53,13.488,13.488,0,0,1-4.533,7.37,13.664,13.664,0,0,1-5.406,2.74,1.106,1.106,0,0,1-.571-0.01,13.424,13.424,0,0,1-9.006-7.5,12.24,12.24,0,0,1-1.211-5.07c-0.037-2.34-.014-4.68-0.017-7.03,0-.07.007-0.15,0.016-0.32,0.585,0,1.166.03,1.745-.01a10.033,10.033,0,0,0,6.822-3.17c0.636-.65,1.282-1.29,2.031-2.05a3.085,3.085,0,0,0,.325.48c0.934,0.9,1.828,1.85,2.832,2.67a9.806,9.806,0,0,0,6.34,2.12h0.977Zm-15.97,7.84c1.428,1.43,2.849,2.86,4.24,4.25,2.192-2.19,4.406-4.4,6.592-6.59-0.507-.5-1.037-1.04-1.6-1.6-1.645,1.64-3.305,3.31-4.992,4.99q-1.339-1.35-2.627-2.67C615.615,2660.77,615.084,2661.3,614.572,2661.81Z" transform="translate(-600 -2641)"/>
</svg>
