<svg xmlns="http://www.w3.org/2000/svg" width="22.25" height="16.13" viewBox="0 0 22.25 16.13">
  <defs>
    <style>
      .cls-1 {
        fill: #fff;
        fill-rule: evenodd;
      }
    </style>
  </defs>
  <path id="圆角矩形_10_拷贝_2" data-name="圆角矩形 10 拷贝 2" class="cls-1" d="M1542.72,3367.88a0.978,0.978,0,0,1-1.41,0l-7.07-7.07a1,1,0,0,1,1.41-1.41l7.07,7.07A1,1,0,0,1,1542.72,3367.88Zm0,0-7.07,7.08a1,1,0,0,1-1.41,0,1.008,1.008,0,0,1,0-1.42l7.07-7.07A1,1,0,0,1,1542.72,3367.88Zm-20.95-1.7h20a1,1,0,0,1,0,2h-20A1,1,0,0,1,1521.77,3366.18Z" transform="translate(-1520.78 -3359.12)"/>
</svg>
