<svg xmlns="http://www.w3.org/2000/svg" width="26.969" height="23.624" viewBox="0 0 26.969 23.624">
  <defs>
    <style>
      .cls-1 {
        fill: #154a93;
        fill-rule: evenodd;
      }
    </style>
  </defs>
  <path id="形状_24" data-name="形状 24" class="cls-1" d="M234.679,550.614a10.984,10.984,0,0,0-.916-1.483q-0.579-.808-1.468-1.833-0.7-.783-1.361-1.537t-1.2-1.375q-0.647-.7-1.212-1.375h-9.889q-0.646.675-1.347,1.4-0.593.621-1.333,1.389t-1.442,1.523a18.48,18.48,0,0,0-1.428,1.631,8.824,8.824,0,0,0-.889,1.388,5.046,5.046,0,0,0-.445,1.24,6.165,6.165,0,0,0-.121,1.24V554.9a3.219,3.219,0,0,0,.3,1.4,3.364,3.364,0,0,0,.795,1.065,3.594,3.594,0,0,0,1.159.687,3.981,3.981,0,0,0,1.387.243h16.625a3.272,3.272,0,0,0,1.28-.256,3.367,3.367,0,0,0,1.077-.728,3.417,3.417,0,0,0,.741-1.119,3.748,3.748,0,0,0,.27-1.456v-1.752a5.38,5.38,0,0,0-.122-1.132A5.226,5.226,0,0,0,234.679,550.614Zm-8.1.525a3.4,3.4,0,0,1-.728,1.092,3.447,3.447,0,0,1-1.077.728,3.272,3.272,0,0,1-1.321.27,3.361,3.361,0,0,1-1.333-.27,3.34,3.34,0,0,1-1.819-1.82,3.365,3.365,0,0,1-.269-1.334,3.272,3.272,0,0,1,.269-1.321,3.466,3.466,0,0,1,.727-1.078,3.4,3.4,0,0,1,1.092-.728,3.361,3.361,0,0,1,1.333-.27,3.272,3.272,0,0,1,1.321.27,3.421,3.421,0,0,1,1.805,1.806,3.272,3.272,0,0,1,.269,1.321A3.365,3.365,0,0,1,226.583,551.139Zm10.225-12a1.7,1.7,0,0,0-.391-0.418,3.175,3.175,0,0,0-.539-0.337c-0.2-.1-0.4-0.211-0.619-0.337q-0.324-.162-1.226-0.714a15.888,15.888,0,0,0-2.4-1.146,23.891,23.891,0,0,0-3.53-1.052,21.148,21.148,0,0,0-4.621-.458,19.171,19.171,0,0,0-4.27.458,27.778,27.778,0,0,0-3.584,1.052,22.311,22.311,0,0,0-2.613,1.146q-1.038.552-1.334,0.714a6.609,6.609,0,0,1-.593.337,3.256,3.256,0,0,0-.539.337,1.99,1.99,0,0,0-.4.418,0.93,0.93,0,0,0-.162.552v1.753a1.594,1.594,0,0,0,.5,1.186,1.655,1.655,0,0,0,1.2.485h3.368a1.656,1.656,0,0,0,1.67-1.671v-1.7h13.5v1.7a1.656,1.656,0,0,0,1.671,1.671h3.368a1.656,1.656,0,0,0,1.2-.485,1.594,1.594,0,0,0,.5-1.186V539.7A0.992,0.992,0,0,0,236.808,539.143Z" transform="translate(-210 -534.688)"/>
</svg>
