<svg xmlns="http://www.w3.org/2000/svg" width="22.03" height="22" viewBox="0 0 22.03 22">
  <metadata><?xpacket begin="﻿" id="W5M0MpCehiHzreSzNTczkc9d"?>
<x:xmpmeta xmlns:x="adobe:ns:meta/" x:xmptk="Adobe XMP Core 5.6-c138 79.159824, 2016/09/14-01:09:01        ">
   <rdf:RDF xmlns:rdf="http://www.w3.org/1999/02/22-rdf-syntax-ns#">
      <rdf:Description rdf:about=""/>
   </rdf:RDF>
</x:xmpmeta>
                                                                                                    
                                                                                                    
                                                                                                    
                                                                                                    
                                                                                                    
                                                                                                    
                                                                                                    
                                                                                                    
                                                                                                    
                                                                                                    
                                                                                                    
                                                                                                    
                                                                                                    
                                                                                                    
                                                                                                    
                                                                                                    
                                                                                                    
                                                                                                    
                                                                                                    
                                                                                                    
                           
<?xpacket end="w"?></metadata>
<defs>
    <style>
      .cls-1 {
        fill: #fff;
        fill-rule: evenodd;
      }
    </style>
  </defs>
  <path id="形状_892_拷贝_2" data-name="形状 892 拷贝 2" class="cls-1" d="M1779.86,354.767h2.34v-1.646a1.811,1.811,0,0,0-1.82-1.808h-1.66v2.324A1.135,1.135,0,0,0,1779.86,354.767Zm2.34,1.356h-2.34a2.5,2.5,0,0,1-2.51-2.486v-2.324h-10.41a1.818,1.818,0,0,0-1.82,1.808v17.047a1.817,1.817,0,0,0,1.82,1.808h9.82l0.14-.664a0.772,0.772,0,0,1,.21-0.4l5.09-5.04v-9.751Zm-4.57,12.474h-7.94a0.678,0.678,0,1,1,0-1.356h7.94A0.678,0.678,0,1,1,1777.63,368.6Zm0-4.52h-7.94a0.678,0.678,0,1,1,0-1.356h7.94A0.678,0.678,0,1,1,1777.63,364.077Zm9.23,0.337a0.91,0.91,0,0,0-1.25,0l-3.41,3.377h0l-3.99,3.961-0.05.226h0l-0.27,1.333,1.57-.317,1.03-1.021h0l0.31-.306,6.06-6.01A0.867,0.867,0,0,0,1786.86,364.414Z" transform="translate(-1765.13 -351.313)"/>
</svg>
