<svg xmlns="http://www.w3.org/2000/svg" xmlns:xlink="http://www.w3.org/1999/xlink" width="18" height="18" viewBox="0 0 18 18">
  <metadata><?xpacket begin="﻿" id="W5M0MpCehiHzreSzNTczkc9d"?>
<x:xmpmeta xmlns:x="adobe:ns:meta/" x:xmptk="Adobe XMP Core 5.6-c138 79.159824, 2016/09/14-01:09:01        ">
   <rdf:RDF xmlns:rdf="http://www.w3.org/1999/02/22-rdf-syntax-ns#">
      <rdf:Description rdf:about=""/>
   </rdf:RDF>
</x:xmpmeta>
                                                                                                    
                                                                                                    
                                                                                                    
                                                                                                    
                                                                                                    
                                                                                                    
                                                                                                    
                                                                                                    
                                                                                                    
                                                                                                    
                                                                                                    
                                                                                                    
                                                                                                    
                                                                                                    
                                                                                                    
                                                                                                    
                                                                                                    
                                                                                                    
                                                                                                    
                                                                                                    
                           
<?xpacket end="w"?></metadata>
<defs>
    <style>
      .cls-1 {
        fill: #154a93;
        fill-rule: evenodd;
        filter: url(#filter);
      }
    </style>
    <filter id="filter" x="1750" y="422" width="18" height="18" filterUnits="userSpaceOnUse">
      <feFlood result="flood" flood-color="#fff"/>
      <feComposite result="composite" operator="in" in2="SourceGraphic"/>
      <feBlend result="blend" in2="SourceGraphic"/>
    </filter>
  </defs>
  <path id="形状_893" data-name="形状 893" class="cls-1" d="M1763.87,431.327a4.25,4.25,0,0,1,4.13,4.359v0.069a4.292,4.292,0,0,1-4.03,4.245h-0.96q-0.03,0-.06,0a14.73,14.73,0,0,1-8.72-3.876,14.475,14.475,0,0,1-4.23-9.762,4.134,4.134,0,0,1,4.13-4.359,4.248,4.248,0,0,1,4.12,4.359,4.09,4.09,0,0,1-2.36,3.77,11.194,11.194,0,0,0,1.72,2.235,9.363,9.363,0,0,0,2.52,1.824,3.946,3.946,0,0,1,3.74-2.861h0Zm0,0" transform="translate(-1750 -422)"/>
</svg>
