<svg xmlns="http://www.w3.org/2000/svg" xmlns:xlink="http://www.w3.org/1999/xlink" width="21.97" height="22" viewBox="0 0 21.97 22">
  <metadata><?xpacket begin="﻿" id="W5M0MpCehiHzreSzNTczkc9d"?>
<x:xmpmeta xmlns:x="adobe:ns:meta/" x:xmptk="Adobe XMP Core 5.6-c138 79.159824, 2016/09/14-01:09:01        ">
   <rdf:RDF xmlns:rdf="http://www.w3.org/1999/02/22-rdf-syntax-ns#">
      <rdf:Description rdf:about=""/>
   </rdf:RDF>
</x:xmpmeta>
                                                                                                    
                                                                                                    
                                                                                                    
                                                                                                    
                                                                                                    
                                                                                                    
                                                                                                    
                                                                                                    
                                                                                                    
                                                                                                    
                                                                                                    
                                                                                                    
                                                                                                    
                                                                                                    
                                                                                                    
                                                                                                    
                                                                                                    
                                                                                                    
                                                                                                    
                                                                                                    
                           
<?xpacket end="w"?></metadata>
<defs>
    <style>
      .cls-1 {
        fill: #154a93;
        fill-rule: evenodd;
        filter: url(#filter);
      }
    </style>
    <filter id="filter" x="1762.56" y="505.625" width="21.97" height="22" filterUnits="userSpaceOnUse">
      <feFlood result="flood" flood-color="#fff"/>
      <feComposite result="composite" operator="in" in2="SourceGraphic"/>
      <feBlend result="blend" in2="SourceGraphic"/>
    </filter>
  </defs>
  <path id="形状_894" data-name="形状 894" class="cls-1" d="M1772.82,505.616h1.46c0.07,0.014.14,0.032,0.21,0.042,0.44,0.064.89,0.1,1.33,0.192a10.842,10.842,0,0,1,5.86,3.374,10.661,10.661,0,0,1,2.69,5.485c0.07,0.392.12,0.789,0.18,1.184v1.462a1.236,1.236,0,0,0-.04.186c-0.1.592-.15,1.195-0.3,1.773a11.011,11.011,0,0,1-12.3,8.193,10.594,10.594,0,0,1-4.24-1.591,0.384,0.384,0,0,0-.36-0.044c-0.83.273-1.66,0.538-2.48,0.8-0.51.163-1.02,0.322-1.55,0.492,0.02-.067.02-0.1,0.03-0.131q0.63-1.869,1.26-3.737a0.417,0.417,0,0,0-.06-0.415,10.832,10.832,0,0,1-1.85-4.7,11.07,11.07,0,0,1,.08-3.632,10.891,10.891,0,0,1,3.38-6.037,10.7,10.7,0,0,1,5.51-2.725C1772.03,505.719,1772.42,505.673,1772.82,505.616Zm4.48,17.168a4.508,4.508,0,0,0,.72-0.144,2.6,2.6,0,0,0,2.15-2.747,0.428,0.428,0,0,0-.27-0.443c-0.82-.394-1.64-0.8-2.47-1.185a0.648,0.648,0,0,0-.93.254c-0.21.287-.42,0.578-0.64,0.86a0.76,0.76,0,0,1-1.1.284,8.719,8.719,0,0,1-4.2-3.737,0.455,0.455,0,0,1,.06-0.644c0.22-.258.45-0.5,0.67-0.76a0.839,0.839,0,0,0,.15-0.986c-0.32-.716-0.63-1.44-0.9-2.177a0.92,0.92,0,0,0-1.04-.709,1.8,1.8,0,0,0-1.16.36,3.327,3.327,0,0,0-.94,1.363,4.147,4.147,0,0,0,.19,3.168,13.5,13.5,0,0,0,2.05,3.029,11.683,11.683,0,0,0,5.34,3.713A7.624,7.624,0,0,0,1777.3,522.784Z" transform="translate(-1762.56 -505.625)"/>
</svg>
