<svg xmlns="http://www.w3.org/2000/svg" xmlns:xlink="http://www.w3.org/1999/xlink" width="17.75" height="20" viewBox="0 0 17.75 20">
  <metadata><?xpacket begin="﻿" id="W5M0MpCehiHzreSzNTczkc9d"?>
<x:xmpmeta xmlns:x="adobe:ns:meta/" x:xmptk="Adobe XMP Core 5.6-c138 79.159824, 2016/09/14-01:09:01        ">
   <rdf:RDF xmlns:rdf="http://www.w3.org/1999/02/22-rdf-syntax-ns#">
      <rdf:Description rdf:about=""/>
   </rdf:RDF>
</x:xmpmeta>
                                                                                                    
                                                                                                    
                                                                                                    
                                                                                                    
                                                                                                    
                                                                                                    
                                                                                                    
                                                                                                    
                                                                                                    
                                                                                                    
                                                                                                    
                                                                                                    
                                                                                                    
                                                                                                    
                                                                                                    
                                                                                                    
                                                                                                    
                                                                                                    
                                                                                                    
                                                                                                    
                           
<?xpacket end="w"?></metadata>
<defs>
    <style>
      .cls-1 {
        fill: #154a93;
        fill-rule: evenodd;
        filter: url(#filter);
      }
    </style>
    <filter id="filter" x="1851.13" y="595" width="17.75" height="20" filterUnits="userSpaceOnUse">
      <feFlood result="flood" flood-color="#fff"/>
      <feComposite result="composite" operator="in" in2="SourceGraphic"/>
      <feBlend result="blend" in2="SourceGraphic"/>
    </filter>
  </defs>
  <path id="形状_876" data-name="形状 876" class="cls-1" d="M1852.22,595h15.56a1.091,1.091,0,0,1,1.11,1.071v1.071a1.092,1.092,0,0,1-1.11,1.072h-15.56a1.092,1.092,0,0,1-1.11-1.072v-1.071a1.091,1.091,0,0,1,1.11-1.071h0Zm10.74,18.928v-6.072h4.06a0.889,0.889,0,0,0,.66-1.522l-7.05-6.794a0.915,0.915,0,0,0-1.26,0l-7.05,6.794a0.889,0.889,0,0,0,.66,1.522h4.06v6.072a1.086,1.086,0,0,0,1.11,1.071h3.7a1.086,1.086,0,0,0,1.11-1.071h0Zm0,0" transform="translate(-1851.13 -595)"/>
</svg>
