<svg xmlns="http://www.w3.org/2000/svg" width="22.406" height="27.969" viewBox="0 0 22.406 27.969">
  <defs>
    <style>
      .cls-1 {
        fill: #154a93;
        fill-rule: evenodd;
      }
    </style>
  </defs>
  <path id="形状_26" data-name="形状 26" class="cls-1" d="M222.67,656.709a11.267,11.267,0,0,1,11.19,11.318,11.054,11.054,0,0,1-2.956,7.563l-6.4,8.176a2.328,2.328,0,0,1-3.678.015l-6.524-8.251a11.333,11.333,0,0,1,8.363-18.821h0Zm5.7,10.927a5.694,5.694,0,0,0-5.669-5.7,5.574,5.574,0,0,0-4,1.682,5.729,5.729,0,0,0,4.012,9.757,5.518,5.518,0,0,0,4-1.682,5.73,5.73,0,0,0,1.658-4.052h0Zm-2.405,0a3.291,3.291,0,0,1-.946,2.327,3.212,3.212,0,0,1-2.3.971,3.289,3.289,0,0,1,0-6.578,3.209,3.209,0,0,1,2.3.962,3.242,3.242,0,0,1,.948,2.319h0Zm0,0" transform="translate(-211.469 -656.719)"/>
</svg>
