<svg xmlns="http://www.w3.org/2000/svg" width="14.625" height="14" viewBox="0 0 14.625 14">
  <defs>
    <style>
      .cls-1 {
        fill: #fff;
        fill-rule: evenodd;
      }
    </style>
  </defs>
  <path id="形状_16" data-name="形状 16" class="cls-1" d="M308.284,6591.26v-0.25a0.768,0.768,0,0,1,.4-0.36c0.6-.31,1.2-0.63,1.806-0.94l11.838-6.18h0.228a0.483,0.483,0,0,1,.337.56c-0.123.85-.252,1.7-0.379,2.54l-0.36,2.43q-0.177,1.185-.354,2.37c-0.119.81-.239,1.61-0.359,2.41-0.074.5-.147,1-0.227,1.49a0.406,0.406,0,0,1-.356.36,0.69,0.69,0,0,1-.345-0.05q-2.762-.93-5.519-1.88c-0.249-.08-0.5-0.17-0.761-0.26q3.066-3.69,6.106-7.36a0.043,0.043,0,0,1-.026-0.02l-0.107.09c-0.687.58-1.374,1.17-2.06,1.76q-2.8,2.385-5.605,4.79a0.262,0.262,0,0,1-.3.06c-1.173-.4-2.348-0.81-3.525-1.2A0.674,0.674,0,0,1,308.284,6591.26Zm5.326,2.99c0.838,0.28,1.653.56,2.485,0.84-0.135.19-.261,0.36-0.387,0.53-0.414.56-.828,1.13-1.241,1.69a0.444,0.444,0,0,1-.49.21,0.451,0.451,0,0,1-.366-0.48c0-.24,0-0.48,0-0.72v-2.07Z" transform="translate(-308.281 -6583.53)"/>
</svg>
