<svg xmlns="http://www.w3.org/2000/svg" width="16.188" height="16.219" viewBox="0 0 16.188 16.219">
  <defs>
    <style>
      .cls-1 {
        fill: #154a93;
        fill-rule: evenodd;
      }
    </style>
  </defs>
  <path id="形状_758" data-name="形状 758" class="cls-1" d="M266,554.21a8.1,8.1,0,1,1,8.1-8.1A8.109,8.109,0,0,1,266,554.21Zm0-14.727a6.627,6.627,0,1,0,6.628,6.627A6.635,6.635,0,0,0,266,539.483Zm3.125,10.489a0.733,0.733,0,0,1-.521-0.215l-3.122-3.123a0.734,0.734,0,0,1-.215-0.519v-4.423a0.737,0.737,0,0,1,.737-0.736h0a0.737,0.737,0,0,1,.736.736v4.117l2.906,2.906A0.736,0.736,0,0,1,269.121,549.972Z" transform="translate(-257.906 -538)"/>
</svg>
