<svg xmlns="http://www.w3.org/2000/svg" width="16" height="16" viewBox="0 0 16 16">
  <defs>
    <style>
      .cls-1 {
        fill: #999;
        fill-rule: evenodd;
      }
    </style>
  </defs>
  <path id="形状_682" data-name="形状 682" class="cls-1" d="M468.373,441a8,8,0,1,0,8,8A8,8,0,0,0,468.373,441Zm0,14.72a6.72,6.72,0,1,1,6.72-6.72,6.719,6.719,0,0,1-6.72,6.72h0Zm3.52-6.4a0.642,0.642,0,0,1-.64.64h-3.2a0.642,0.642,0,0,1-.64-0.64v-3.2a0.642,0.642,0,0,1,.64-0.64,0.629,0.629,0,0,1,.64.64v2.56h2.56a0.642,0.642,0,0,1,.64.64h0Z" transform="translate(-460.375 -441)"/>
</svg>
