<svg xmlns="http://www.w3.org/2000/svg" width="11.468" height="14.031" viewBox="0 0 11.468 14.031">
  <defs>
    <style>
      .cls-1 {
        fill: #fff;
        fill-rule: evenodd;
      }
    </style>
  </defs>
  <path id="形状_679" data-name="形状 679" class="cls-1" d="M216.055,134.539a5.7,5.7,0,0,1,5.657,4.749,5.546,5.546,0,0,1-1.3,4.65q-1.749,2.081-3.506,4.156a1.027,1.027,0,0,1-1.692,0c-1.19-1.411-2.39-2.813-3.57-4.233a5.346,5.346,0,0,1-1.29-4.059,5.57,5.57,0,0,1,3.963-4.992A5.007,5.007,0,0,1,216.055,134.539Zm-2.353,5.686a2.36,2.36,0,1,0,2.378-2.34A2.349,2.349,0,0,0,213.7,140.225Z" transform="translate(-210.344 -134.531)"/>
</svg>
