<svg xmlns="http://www.w3.org/2000/svg" width="14.25" height="10.47" viewBox="0 0 14.25 10.47">
  <defs>
    <style>
      .cls-1 {
        fill: #fff;
        fill-rule: evenodd;
      }
    </style>
  </defs>
  <path id="圆角矩形_10_拷贝" data-name="圆角矩形 10 拷贝" class="cls-1" d="M893.236,2549.19a1,1,0,0,1-1.414,0l-4.242-4.24a1,1,0,1,1,1.414-1.42l4.242,4.25A0.994,0.994,0,0,1,893.236,2549.19Zm0,0-4.242,4.24a1,1,0,0,1-1.414-1.41l4.242-4.24A1,1,0,0,1,893.236,2549.19Zm-12.955-1.69h12a1,1,0,0,1,0,2h-12A1,1,0,0,1,880.281,2547.5Z" transform="translate(-879.281 -2543.25)"/>
</svg>
